<svg xmlns="http://www.w3.org/2000/svg" viewBox="0 0 488 488"><defs><linearGradient id="e" x1=".5" x2=".5" y1=".999" y2=".002"><stop offset="0" stop-color="#973BED"/><stop offset="1" stop-color="#007CFF"/></linearGradient><linearGradient id="d" x1=".497" x2=".497" y1=".997" y2="0"><stop offset="0" stop-color="#FFC800"/><stop offset="1" stop-color="#F0F"/></linearGradient><linearGradient id="a" x1=".5" x2=".5" y1=".999" y2=".001"><stop offset="0" stop-color="#00E0ED"/><stop offset="1" stop-color="#00DA72"/></linearGradient><clipPath><path fill="#fff" d="m0 0h487v144h-487v-144z"/></clipPath></defs><g class="layer"><title>Layer 1</title><path fill="url(#e)" d="m58 307.81a4 4 0 0 0 4 4h12a4 4 0 0 0 4-4v-65a68 68 0 0 0 58-63 4 4 0 0 0-4-4h-12a4 4 0 0 0-5 4 47 47 0 0 1-47 43 48 48 0 0 1-47-43 4 4 0 0 0-4-4h-13a4 4 0 0 0-4 4 68 68 0 0 0 58 63v65z"/><path fill="url(#d)" d="m209 171.81a72 72 0 0 0-71 86 72 72 0 0 0 98 53 72 72 0 0 0 24-118 72 72 0 0 0-51-21zm0 123a52 52 0 0 1-51-61 51 51 0 0 1 70-38 52 52 0 0 1 17 84 52 52 0 0 1-36 15z"/><path fill="url(#a)" d="m318 243.81a47 47 0 0 0 48 47 48 48 0 0 0 47-47v-64a4 4 0 0 1 4-4h13a4 4 0 0 1 4 4v64a68 68 0 0 1-68 68 68 68 0 0 1-69-68v-64a4 4 0 0 1 4-4h13a4 4 0 0 1 4 4v64z"/><path fill="#B8B8BF" d="m460 203.81a10 10 0 0 0-10 12 10 10 0 0 0 8 8 10 10 0 0 0 12-10 10 10 0 0 0-10-10zm0 16a5 5 0 0 1-5-4 5 5 0 0 1 4-7 5 5 0 0 1 7 5 5 5 0 0 1-6 6zm7 23a3 3 0 0 0-3 3 3 3 0 0 0 4 2 3 3 0 0 0 2-3 3 3 0 0 0-3-2zm-1-17-1 1a1 1 0 0 0 0 2 5 5 0 0 1-8 7 5 5 0 0 1-1-7 1 1 0 0 0-1-2l-1-1a1 1 0 0 0-2 0 10 10 0 0 0 8 16 10 10 0 0 0 10-11l-2-5a1 1 0 0 0-1-1 1 1 0 0 0-1 1zm-8-46h11a1 1 0 0 0 1-1v-2a1 1 0 0 0-1-1h-11a8 8 0 0 0-8 9l3 4a8 8 0 0 0-2 9 1 1 0 0 0-1 1v2a1 1 0 0 0 1 1h18a1 1 0 0 0 1-1v-2a1 1 0 0 0-1-1h-11a3 3 0 0 1-3-3 3 3 0 0 1 3-4h11a1 1 0 0 0 1-1v-2a1 1 0 0 0-1-1h-11a3 3 0 0 1-3-3 3 3 0 0 1 3-4z"/></g></svg>